<?xml version="1.0" standalone="no"?>
<!DOCTYPE svg PUBLIC "-//W3C//DTD SVG 20010904//EN"
 "http://www.w3.org/TR/2001/REC-SVG-20010904/DTD/svg10.dtd">
<svg version="1.0" xmlns="http://www.w3.org/2000/svg"
 width="256.000000pt" height="256.000000pt" viewBox="0 0 256.000000 256.000000"
 preserveAspectRatio="xMidYMid meet">
<metadata>
Created by potrace 1.11, written by Peter Selinger 2001-2013
</metadata>
<g transform="translate(0.000000,256.000000) scale(0.100000,-0.100000)"
fill="#000000" stroke="none">
<path d="M1240 2314 c-8 -1 -49 -8 -90 -15 -195 -33 -359 -156 -446 -334 -24
-50 -44 -96 -44 -102 0 -6 -25 -30 -56 -53 -30 -24 -60 -52 -66 -63 -9 -17
-17 -19 -72 -13 -33 3 -74 9 -91 12 -110 20 -195 1 -260 -59 -83 -76 -83 -75
-81 -592 1 -440 1 -451 22 -490 42 -78 108 -126 194 -140 25 -4 52 -9 60 -10
8 -1 44 -6 80 -11 36 -4 67 -8 70 -9 5 -1 77 -10 165 -21 22 -2 51 -7 65 -9
14 -2 45 -7 70 -10 25 -3 56 -8 70 -10 14 -2 44 -7 68 -10 105 -13 161 -21
377 -51 98 -14 159 -10 230 13 113 36 261 91 292 107 75 39 132 130 136 215 1
28 4 51 7 52 3 0 12 2 20 3 8 2 40 6 70 9 30 4 65 9 78 12 12 3 32 7 43 10
141 31 272 120 334 228 41 71 56 132 61 240 8 184 -40 323 -148 431 -35 34
-79 69 -98 78 -32 15 -37 23 -48 77 -46 223 -237 379 -486 398 -65 4 -91 12
-141 39 -99 55 -169 75 -275 78 -52 2 -102 2 -110 0z"/>
</g>
</svg>
